<svg width="149" height="85" viewBox="0 0 149 85" fill="none" xmlns="http://www.w3.org/2000/svg">
<path d="M9 12L42.28 5.56006L84.64 72.3074L51.44 78.92L9 12Z" fill="#610FC9"/>
<path d="M64 12.1174L96.7 6L139 72.6174L106 79.06L64 12.1174Z" fill="#610FC9"/>
<path d="M8.6824 11.8177L42.28 5.55674L31.5138 66.6148L-1.27554e-05 61.0581L8.6824 11.8177Z" fill="#9039FF"/>
<path d="M63.2452 11.9544L96.8428 5.69346L85.0348 72.6604L51.4371 78.9213L63.2452 11.9544Z" fill="#9039FF"/>
<path d="M116.766 18L148.28 23.5567L139.598 72.7971L106 79.0581L116.766 18Z" fill="#9039FF"/>
<path d="M24.4386 30.6457V41.5257L15.9586 30.6457H9.87864V53.0457H17.0786V42.1657L25.5586 53.0457H31.6386V30.6457H24.4386ZM55.3211 53.0457V46.4857H45.8811V30.6457H38.6811V53.0457H55.3211ZM65.2474 41.8457C65.2474 38.8057 67.6474 36.4057 70.6874 36.4057C73.7274 36.4057 76.1274 38.8057 76.1274 41.8457C76.1274 44.8857 73.7274 47.2857 70.6874 47.2857C67.6474 47.2857 65.2474 44.8857 65.2474 41.8457ZM83.3274 41.8457C83.3274 35.4457 77.8874 30.0057 70.6874 30.0057C63.4874 30.0057 58.0474 35.4457 58.0474 41.8457C58.0474 48.2457 63.4874 53.6857 70.6874 53.6857C77.8874 53.6857 83.3274 48.2457 83.3274 41.8457ZM100.459 53.6857C107.019 53.6857 110.699 49.2057 110.699 49.2057V40.4057H100.299V44.4057H103.499V46.3257C103.499 46.3257 102.539 47.2857 100.459 47.2857C97.4186 47.2857 95.0186 44.8857 95.0186 41.8457C95.0186 38.8057 97.4186 36.4057 100.619 36.4057C103.819 36.4057 105.899 38.9657 105.899 38.9657L110.219 34.4857C110.219 34.4857 107.019 30.0057 100.459 30.0057C93.2586 30.0057 87.8186 35.4457 87.8186 41.8457C87.8186 48.2457 93.2586 53.6857 100.459 53.6857ZM131.805 30.6457V41.5257L123.325 30.6457H117.245V53.0457H124.445V42.1657L132.925 53.0457H139.005V30.6457H131.805Z" fill="white"/>
</svg>
